<svg aria-hidden="true" style="position: absolute; width: 0; height: 0; overflow: hidden;" version="1.1" xmlns="http://www.w3.org/2000/svg" xmlns:xlink="http://www.w3.org/1999/xlink">
<defs>
<symbol id="touchscreen" viewBox="0 0 32 32">
<path fill="#ff2e63" style="fill: var(--color1, #ff2e63)" d="M10 22.666c-0.368-0-0.666-0.299-0.666-0.666v-15.334c0.002-1.472 1.195-2.665 2.666-2.667h0c1.472 0.002 2.665 1.195 2.666 2.666v14c-0.014 0.357-0.307 0.641-0.666 0.641s-0.652-0.284-0.666-0.64l-0-0.001v-14c-0.020-0.721-0.61-1.297-1.334-1.297s-1.313 0.577-1.333 1.296l-0 0.002v15.334c0 0.368-0.299 0.666-0.666 0.666z"></path>
<path fill="#ff2e63" style="fill: var(--color1, #ff2e63)" d="M18 21.334c-0.368-0-0.666-0.299-0.666-0.667 0 0 0 0 0 0v0-6c-0.020-0.721-0.61-1.297-1.334-1.297s-1.313 0.577-1.333 1.296l-0 0.002c-0.014 0.357-0.307 0.641-0.666 0.641s-0.652-0.284-0.666-0.64l-0-0.001c0.002-1.472 1.195-2.665 2.666-2.667h0c1.472 0.002 2.665 1.195 2.666 2.666v6c0 0.368-0.299 0.667-0.666 0.667z"></path>
<path fill="#ff2e63" style="fill: var(--color1, #ff2e63)" d="M22 21.334c-0.368-0-0.666-0.299-0.666-0.667 0 0 0 0 0 0v0-4.666c-0.020-0.721-0.61-1.297-1.334-1.297s-1.313 0.577-1.333 1.296l-0 0.002c-0.014 0.357-0.307 0.641-0.666 0.641s-0.652-0.284-0.666-0.64l-0-0.001c0.002-1.472 1.195-2.665 2.666-2.666h0c1.472 0.002 2.665 1.195 2.666 2.666v4.667c0 0.368-0.299 0.667-0.666 0.667z"></path>
<path fill="#ff2e63" style="fill: var(--color1, #ff2e63)" d="M20.666 32h-7.716c-2.244 0-4.559-0.977-6.194-2.615-1.805-1.806-2.759-4.383-2.755-7.45 0.002-2.537 2.123-4.601 4.727-4.601h1.272c0.357 0.014 0.641 0.307 0.641 0.666s-0.284 0.652-0.64 0.666l-0.001 0h-1.272c-1.87 0-3.392 1.468-3.393 3.27-0.003 2.744 0.793 4.932 2.364 6.506 1.639 1.64 3.787 2.224 5.252 2.224h7.716c2.573 0 4.667-2.093 4.667-4.666v-8.666c-0.020-0.721-0.61-1.297-1.334-1.297s-1.313 0.577-1.333 1.296l-0 0.002c-0.014 0.357-0.307 0.641-0.666 0.641s-0.652-0.284-0.666-0.64l-0-0.001c0.001-1.472 1.194-2.665 2.666-2.667h0c1.472 0.002 2.665 1.195 2.666 2.667v8.667c0 3.308-2.692 6-6 6z"></path>
<path fill="#346cd9" style="fill: var(--color2, #346cd9)" d="M16.666 11.094c-0.001 0-0.001 0-0.002 0-0.367 0-0.665-0.298-0.665-0.665 0-0.161 0.057-0.309 0.153-0.424l-0.001 0.001c0.773-0.947 1.182-2.101 1.182-3.339 0-2.941-2.392-5.333-5.334-5.333s-5.333 2.392-5.333 5.333c0 1.237 0.41 2.392 1.183 3.339 0.094 0.114 0.151 0.261 0.151 0.422 0 0.207-0.095 0.392-0.243 0.514l-0.001 0.001c-0.114 0.094-0.261 0.152-0.423 0.152-0.207 0-0.392-0.095-0.514-0.244l-0.001-0.001c-0.972-1.188-1.485-2.635-1.485-4.183 0-3.676 2.99-6.667 6.667-6.667s6.666 2.99 6.666 6.667c0 1.548-0.513 2.995-1.484 4.183-0.123 0.149-0.307 0.244-0.514 0.244-0.001 0-0.001 0-0.002 0h0z"></path>
</symbol>
<symbol id="payment" viewBox="0 0 32 32">
<path fill="#346cd9" style="fill: var(--color2, #346cd9)" d="M11.79 15.999h-3.79v1.333h16v-1.334h-3.771c1.166-0.827 2.065-1.961 2.588-3.284l0.017-0.049h3.567l2.2 2.446c0.127 0.14 0.306 0.22 0.496 0.22h2.238v-1.332h-1.942l-2.201-2.446c-0.123-0.136-0.299-0.221-0.496-0.221 0 0-0 0-0 0h-4.695c-0.368 0-0.666-0.298-0.666-0.666v0c0-1.105 0.895-2 2-2v0h0.666c0.368 0 0.666 0.299 0.666 0.666s0.299 0.667 0.667 0.667h4v-1.333h-3.447c-0.284-0.783-1.020-1.333-1.886-1.334h-0.667c-0.165 0-0.326 0.013-0.485 0.036-0.305-0.78-0.707-1.453-1.2-2.047l0.010 0.012 1.366-0.74 2.579 1.9 0.791-1.076-2.921-2.151c-0.109-0.081-0.246-0.13-0.395-0.13-0.116 0-0.225 0.030-0.32 0.082l0.003-0.002-5.384 2.914c-0.128 0.071-0.282 0.113-0.445 0.113-0.515 0-0.933-0.417-0.934-0.932v-0c-0-0.003-0-0.006-0-0.009 0-0.325 0.168-0.611 0.421-0.777l0.004-0.002 6.647-3.156 8.105 1.947 0.31-1.296-8.333-2c-0.047-0.012-0.101-0.019-0.157-0.019-0.104 0-0.201 0.024-0.288 0.067l0.004-0.002-5.64 2.678c-0.35-0.051-0.703-0.078-1.057-0.078-4.050-0.004-7.337 3.276-7.341 7.326-0.002 2.483 1.23 4.678 3.117 6.007zM10.126 8.806c0.51-2.51 2.517-4.332 4.902-4.727-0.231 0.349-0.369 0.778-0.369 1.239 0 0.128 0.011 0.253 0.031 0.374l-0.002-0.013c-0.814 0.467-1.354 1.331-1.354 2.321 0 1.473 1.194 2.666 2.666 2.667v0c0 0 0 0 0 0 0.736 0 1.334 0.597 1.334 1.334s-0.597 1.334-1.334 1.334c-0.736 0-1.334-0.597-1.334-1.334 0-0 0-0.001 0-0.001v0h-1.333c0 1.243 0.85 2.287 2 2.583v0.751h1.333v-0.751c1.161-0.306 2.003-1.346 2.003-2.582 0-1.473-1.194-2.666-2.666-2.666-0.001 0-0.002 0-0.003 0h0c-0.735-0.001-1.331-0.598-1.331-1.333 0-0.469 0.242-0.882 0.608-1.119l0.005-0.003c0.413 0.436 0.996 0.707 1.642 0.707 0.145 0 0.286-0.014 0.424-0.040l-0.014 0.002v1.12h1.333v-1.713l1.793-0.97c0.47 0.521 0.853 1.131 1.12 1.8l0.014 0.041c-0.962 0.596-1.593 1.645-1.593 2.842v0c0 0.898 0.591 1.657 1.406 1.91l0.014 0.004c-0.981 2.038-3.029 3.419-5.401 3.419-0.007 0-0.014 0-0.020-0h0.001c-0.399 0-0.797-0.040-1.188-0.12-3.248-0.659-5.345-3.826-4.686-7.073z"></path>
<path fill="#ff2e63" style="fill: var(--color1, #ff2e63)" d="M30.666 16.666v8c0 0.368-0.299 0.666-0.666 0.666h-28c-0.368 0-0.667-0.298-0.667-0.666v0-18.667c0-0.368 0.298-0.667 0.667-0.667h6.666v-1.333h-6.667c-1.105 0-2 0.895-2 2v0 18.667c0 1.105 0.895 2 2 2v0h8.921l-2 4h-1.588v1.333h17.333v-1.333h-1.588l-2-4h8.922c1.105 0 2-0.895 2-2v0-8h-1.334zM21.588 30.666h-11.177l2-4h7.177l2 4z"></path>
<path fill="#ff2e63" style="fill: var(--color1, #ff2e63)" d="M2.667 20.666v2.666c0 0.368 0.298 0.667 0.667 0.667h2.667v-1.334h-2v-2h-1.333zM8.666 22.666h-1.333v1.333h1.333v-1.333zM28 22.666h-2v1.333h2.666c0.369 0 0.667-0.298 0.667-0.666v-2.666h-1.334v2zM24.666 22.666h-1.333v1.333h1.333v-1.333zM7.333 6.666h-2.667c-1.105 0-2 0.895-2 2v0 10.666h1.333v-10.666c0-0.368 0.298-0.667 0.667-0.667h2.667v-1.333zM22 22.666h-12v1.333h12v-1.333z"></path>
</symbol>
<symbol id="tickets" viewBox="0 0 32 32">
<path fill="#346cd9" style="fill: var(--color2, #346cd9)" d="M8.201 13.553c0.165 0 0.326-0.067 0.442-0.184 0.113-0.113 0.182-0.269 0.183-0.441v-0c0-0.165-0.067-0.326-0.183-0.442-0.113-0.113-0.27-0.182-0.442-0.183h-0c-0.165 0-0.325 0.066-0.441 0.183-0.113 0.113-0.183 0.269-0.184 0.442v0c0 0.164 0.067 0.325 0.184 0.441s0.277 0.184 0.441 0.184zM17.154 12.725c-0.113-0.113-0.27-0.183-0.442-0.184h-0c-0.172 0.001-0.329 0.070-0.442 0.183l0-0c-0.113 0.113-0.182 0.27-0.183 0.442v0c0 0.165 0.067 0.325 0.183 0.442s0.277 0.183 0.442 0.183c0.165 0 0.326-0.067 0.442-0.183s0.183-0.277 0.183-0.442c0-0.165-0.067-0.325-0.183-0.442zM18.9 11.604c0.165 0 0.326-0.067 0.442-0.183 0.112-0.113 0.182-0.27 0.183-0.442v-0c-0-0.172-0.070-0.329-0.183-0.442l0 0c-0.113-0.113-0.27-0.182-0.442-0.183h-0c-0.165 0-0.326 0.067-0.442 0.183-0.113 0.113-0.182 0.27-0.183 0.442v0c0 0.165 0.067 0.325 0.183 0.442s0.277 0.183 0.442 0.183z"></path>
<path fill="#ff2e63" style="fill: var(--color1, #ff2e63)" d="M30.125 15.375h-1.744l3.070-3.070c0.339-0.338 0.549-0.805 0.549-1.321 0-0.002 0-0.003 0-0.005v0c0-0.501-0.195-0.972-0.549-1.325l-2.785-2.785c-0.113-0.113-0.269-0.183-0.442-0.183s-0.329 0.070-0.442 0.183v0c-0.337 0.34-0.805 0.55-1.321 0.55-0.002 0-0.003 0-0.004 0h0c-0.001 0-0.003 0-0.005 0-0.517 0-0.984-0.21-1.321-0.55l-0-0c-0.339-0.337-0.549-0.804-0.549-1.32 0-0.002 0-0.003 0-0.005v0c0-0.501 0.195-0.972 0.549-1.326 0.113-0.113 0.183-0.269 0.183-0.442s-0.070-0.329-0.183-0.442l-2.784-2.784c-0.337-0.339-0.805-0.549-1.321-0.549-0.002 0-0.004 0-0.005 0h0c-0.501 0-0.971 0.195-1.326 0.549l-10.323 10.322c-0.118 0.114-0.191 0.273-0.191 0.449 0 0.345 0.28 0.625 0.625 0.625 0.176 0 0.336-0.073 0.45-0.191l0-0 10.322-10.322c0.118-0.118 0.275-0.183 0.442-0.183s0.324 0.065 0.442 0.183l2.386 2.386c-0.324 0.482-0.517 1.077-0.517 1.716 0 0.003 0 0.005 0 0.008v-0c0 0.835 0.325 1.62 0.915 2.21 0.562 0.565 1.341 0.915 2.201 0.915 0.003 0 0.006 0 0.009 0h-0c0.003 0 0.006 0 0.009 0 0.639 0 1.233-0.193 1.726-0.524l-0.011 0.007 2.386 2.386c0.244 0.243 0.244 0.64 0 0.884l-3.954 3.954h-2.74l2.053-2.054c0.113-0.113 0.183-0.269 0.183-0.442s-0.070-0.329-0.183-0.442l-6.364-6.364c-0.113-0.113-0.269-0.183-0.442-0.183s-0.329 0.070-0.442 0.183l-9.301 9.302h-7.503c-1.035 0.001-1.874 0.84-1.875 1.875v3.937c0 0.345 0.28 0.625 0.625 0.625 1.035 0.001 1.874 0.84 1.875 1.875v0c-0.001 1.035-0.84 1.874-1.875 1.875h-0c-0.345 0-0.625 0.28-0.625 0.625v3.938c0.001 1.035 0.84 1.874 1.875 1.876h28.25c1.035-0.001 1.874-0.84 1.875-1.875v-3.938c0-0.345-0.28-0.625-0.625-0.625-1.035-0.001-1.874-0.84-1.875-1.875v-0c0.001-1.035 0.84-1.874 1.875-1.875h0c0.345 0 0.625-0.28 0.625-0.625v-3.938c-0.001-1.035-0.84-1.874-1.875-1.875h-0zM19.12 7.399l5.48 5.48-2.495 2.496h-2.475l1.832-1.833c0.118-0.114 0.191-0.273 0.191-0.449 0-0.345-0.28-0.625-0.625-0.625-0.176 0-0.336 0.073-0.45 0.191l-0 0-2.716 2.716h-6.716l7.975-7.975zM30.75 20.625c-1.436 0.303-2.498 1.558-2.5 3.062v0c0 1.509 1.075 2.772 2.5 3.063v3.375c0 0.345-0.28 0.625-0.625 0.625h-28.25c-0.345 0-0.625-0.28-0.625-0.625v-3.375c1.425-0.291 2.5-1.553 2.5-3.063s-1.075-2.771-2.5-3.062v-3.375c0-0.345 0.28-0.625 0.625-0.625h28.25c0.345 0 0.625 0.28 0.625 0.625v3.375z"></path>
<path fill="#346cd9" style="fill: var(--color2, #346cd9)" d="M13.348 22.629c0.113-0.113 0.182-0.27 0.183-0.442v-0c0-0.165-0.066-0.326-0.183-0.442-0.113-0.113-0.269-0.183-0.442-0.183h-0c-0.172 0.001-0.328 0.071-0.442 0.184l0-0c-0.113 0.113-0.183 0.269-0.184 0.441v0c0 0.165 0.067 0.326 0.184 0.442s0.277 0.183 0.441 0.183c0.165 0 0.326-0.067 0.442-0.183zM19.535 22.629c0.113-0.113 0.182-0.27 0.183-0.442v-0c0-0.165-0.067-0.326-0.183-0.442-0.113-0.113-0.269-0.183-0.442-0.183h-0c-0.172 0.001-0.328 0.071-0.442 0.184l0-0c-0.113 0.113-0.183 0.269-0.183 0.441v0c0 0.165 0.067 0.326 0.183 0.442s0.277 0.183 0.442 0.183c0.165 0 0.326-0.067 0.442-0.183zM16.442 22.629c0.113-0.113 0.182-0.27 0.183-0.442v-0c0-0.165-0.067-0.326-0.183-0.442-0.113-0.113-0.269-0.183-0.442-0.183h-0c-0.173 0.001-0.329 0.071-0.442 0.184l0-0c-0.113 0.113-0.182 0.269-0.183 0.441v0c0 0.165 0.067 0.326 0.183 0.442s0.277 0.183 0.442 0.183c0.164 0 0.326-0.067 0.442-0.183zM9.813 22.812c0.164 0 0.325-0.067 0.442-0.183 0.113-0.113 0.182-0.27 0.183-0.442v-0c0-0.165-0.067-0.326-0.183-0.442-0.113-0.113-0.269-0.183-0.442-0.183h-0c-0.173 0.001-0.329 0.071-0.442 0.184l0-0c-0.113 0.113-0.182 0.269-0.183 0.441v0c0 0.165 0.067 0.326 0.183 0.442s0.277 0.183 0.442 0.183zM22.63 22.629c0.113-0.113 0.182-0.27 0.183-0.442v-0c0-0.165-0.067-0.326-0.183-0.442-0.113-0.113-0.269-0.183-0.442-0.183h-0c-0.173 0.001-0.329 0.071-0.442 0.184l0-0c-0.113 0.113-0.182 0.269-0.183 0.441v0c0 0.165 0.067 0.326 0.183 0.442s0.277 0.183 0.442 0.183c0.164 0 0.326-0.067 0.442-0.183z"></path>
<path fill="#ff2e63" style="fill: var(--color1, #ff2e63)" d="M9.813 25.812h12.375c0.345 0 0.625-0.28 0.625-0.625s-0.28-0.625-0.625-0.625v0h-12.375c-0.345 0-0.625 0.28-0.625 0.625s0.28 0.625 0.625 0.625v0z"></path>
<path fill="#346cd9" style="fill: var(--color2, #346cd9)" d="M12.082 27.562c-0.173 0.001-0.329 0.071-0.442 0.184l0-0c-0.113 0.113-0.182 0.269-0.183 0.441v0c0 0.165 0.067 0.326 0.183 0.442s0.277 0.183 0.442 0.183c0.165 0 0.325-0.067 0.442-0.183 0.112-0.113 0.181-0.269 0.181-0.441 0-0.345-0.278-0.625-0.623-0.627h-0z"></path>
<path fill="#ff2e63" style="fill: var(--color1, #ff2e63)" d="M25.5 18.562h-19c-0.345 0-0.625 0.28-0.625 0.625v9c0 0.345 0.28 0.625 0.625 0.625h2.604c0.345 0 0.625-0.28 0.625-0.625s-0.28-0.625-0.625-0.625v0h-1.979v-7.75h17.75v7.75h-10.146c-0.345 0-0.625 0.28-0.625 0.625s0.28 0.625 0.625 0.625v0h10.771c0.345 0 0.625-0.28 0.625-0.625v-9c0-0.345-0.28-0.625-0.625-0.625z"></path>
</symbol>
<symbol id="winner" viewBox="0 0 32 32">
<path fill="#ff2e63" style="fill: var(--color1, #ff2e63)" d="M29.276 9.9l-6.954-1.232-3.442-6.332c-0.312-0.566-0.769-1.019-1.321-1.318l-0.017-0.009c-0.447-0.242-0.978-0.385-1.543-0.385-1.248 0-2.333 0.695-2.89 1.72l-0.009 0.017-3.32 6.232-1.246 0.232c-0.291 0.057-0.507 0.31-0.507 0.614 0 0.345 0.28 0.625 0.625 0.625 0.039 0 0.077-0.004 0.114-0.010l-0.004 0.001 1.155-0.214 0.843 1.16c-1.027 0.851-1.833 1.932-2.346 3.165l-0.020 0.054-6.8-2.21c0.080-0.12 0.174-0.232 0.28-0.335 0.298-0.289 0.686-0.487 1.117-0.548l0.011-0.001 0.229-0.043c0.292-0.056 0.511-0.31 0.511-0.614 0-0.345-0.28-0.625-0.625-0.625-0.041 0-0.080 0.004-0.118 0.011l0.004-0.001-0.219 0.040c-0.696 0.109-1.305 0.424-1.777 0.88l0.001-0.001c-0.609 0.583-0.992 1.398-1.008 2.302l-0 0.003c-0.001 0.021-0.001 0.047-0.001 0.072 0 0.883 0.35 1.684 0.92 2.271l4.903 5.086-0.91 6.939c-0.041 0.193-0.064 0.415-0.064 0.643 0 0.523 0.123 1.018 0.343 1.456l-0.009-0.019c0.548 1.104 1.668 1.85 2.962 1.85 0.001 0 0.002 0 0.003 0h-0c0.483 0 0.973-0.107 1.436-0.331l6.345-3.089 6.51 3.102c0.411 0.2 0.895 0.317 1.406 0.317 0.162 0 0.322-0.012 0.478-0.035l-0.018 0.002c1.611-0.231 2.836-1.602 2.836-3.259 0-0.158-0.011-0.313-0.033-0.466l0.002 0.017-0.977-6.997 4.838-5.104c0.502-0.473 0.853-1.1 0.978-1.806l0.003-0.020c0.312-1.788-0.889-3.496-2.675-3.808zM30.318 11.888l-6.899 2.242c-0.501-1.172-1.225-2.162-2.126-2.956l-0.009-0.008 0.909-1.252 6.866 1.216c0.515 0.092 0.953 0.366 1.255 0.752l0.003 0.005zM24.906 20.899l0.965 6.907c0.012 0.084 0.019 0.181 0.019 0.279 0 0.424-0.13 0.817-0.352 1.143l0.005-0.007-4.254-5.855c0.905-0.799 1.627-1.784 2.107-2.898l0.020-0.053 1.49 0.485zM17.782 2.934l3.397 6.249-0.895 1.231c-1.061-0.688-2.336-1.138-3.707-1.246l-0.028-0.002v-7.216c0.535 0.155 0.97 0.508 1.227 0.973l0.005 0.010zM10.926 9.102l3.277-6.152c0.237-0.44 0.62-0.775 1.082-0.947l0.014-0.005v7.168c-1.311 0.103-2.51 0.504-3.554 1.135l0.036-0.020-0.856-1.178zM15.925 10.393c3.791 0 6.875 3.084 6.875 6.875s-3.084 6.875-6.875 6.875c-3.79 0-6.875-3.084-6.875-6.875s3.085-6.875 6.875-6.875zM6.533 29.343c-0.27-0.343-0.433-0.781-0.433-1.257 0-0.145 0.015-0.287 0.044-0.424l-0.002 0.013 0.008-0.045 0.901-6.867 1.348-0.438c0.532 1.282 1.336 2.358 2.344 3.196l0.013 0.011-4.222 5.811zM1.819 14.553c-0.337-0.348-0.55-0.818-0.567-1.337l-0-0.003 6.763 2.197c-0.136 0.557-0.215 1.196-0.215 1.854 0 0.001 0 0.002 0 0.003v-0c0 0.642 0.075 1.267 0.217 1.866l-1.357 0.441-4.841-5.021zM9.035 29.92c-0.26 0.13-0.567 0.206-0.891 0.206-0.205 0-0.403-0.030-0.589-0.087l0.014 0.004 4.208-5.792c1.009 0.612 2.21 1.015 3.495 1.116l0.028 0.002v1.502l-6.264 3.049zM24.133 30.102c-0.087 0.013-0.187 0.021-0.289 0.021-0.315 0-0.614-0.072-0.88-0.2l0.012 0.005-6.426-3.061v-1.498c1.401-0.11 2.678-0.561 3.772-1.271l-0.031 0.019 4.27 5.878c-0.123 0.047-0.267 0.085-0.417 0.106l-0.011 0.001zM30.719 13.492c-0.080 0.454-0.301 0.846-0.615 1.139l-0.001 0.001c-0.009 0.009-0.018 0.018-0.027 0.027l-0 0-4.787 5.049-1.478-0.48c0.156-0.628 0.24-1.285 0.24-1.961 0-0.672-0.083-1.326-0.238-1.951l6.935-2.253c0.006 0.142-0.003 0.286-0.029 0.43z"></path>
<path fill="#346cd9" style="fill: var(--color2, #346cd9)" d="M15.925 22.892c3.102 0 5.625-2.523 5.625-5.625s-2.523-5.625-5.625-5.625c-3.101 0-5.625 2.524-5.625 5.625s2.524 5.625 5.625 5.625zM15.925 12.893c2.413 0 4.375 1.963 4.375 4.375s-1.962 4.375-4.375 4.375-4.375-1.962-4.375-4.375 1.963-4.375 4.375-4.375z"></path>
<path fill="#346cd9" style="fill: var(--color2, #346cd9)" d="M15.232 19.142c-0.345 0-0.625 0.28-0.625 0.625s0.28 0.625 0.625 0.625v0h1.386c0.345 0 0.625-0.28 0.625-0.625s-0.28-0.625-0.625-0.625v0h-0.068v-4.375c0-0 0-0 0-0 0-0.345-0.28-0.625-0.625-0.625-0.115 0-0.223 0.031-0.315 0.085l0.003-0.002-0.693 0.4c-0.189 0.11-0.313 0.311-0.313 0.542 0 0.345 0.28 0.625 0.625 0.625 0.024 0 0.048-0.001 0.072-0.004l-0.003 0v3.354h-0.068z"></path>
<path fill="#ff2e63" style="fill: var(--color1, #ff2e63)" d="M5.883 10.579c0.345 0 0.625-0.28 0.625-0.625s-0.28-0.625-0.625-0.625v0c-0.345 0-0.625 0.28-0.625 0.625s0.28 0.625 0.625 0.625v0z"></path>
</symbol>
<symbol id="vector" viewBox="0 0 48 32">
<path fill="none" stroke="#fff" style="stroke: var(--color1, #fff)" stroke-linejoin="round" stroke-linecap="round" stroke-miterlimit="4" stroke-width="5.3333" d="M30.195 2.667l15.139 13.333M45.333 16l-15.139 13.333M45.333 16h-42.667"></path></symbol>
<symbol id="vector-black" viewBox="0 0 48 32">
<path fill="none" stroke="#585858" style="stroke: var(--color1, #585858)" stroke-linejoin="round" stroke-linecap="round" stroke-miterlimit="4" stroke-width="4" d="M30.193 2.667l15.14 13.333M45.333 16l-15.14 13.333M45.333 16h-42.667"></path></symbol>
<symbol id="icon-vector-black" viewBox="0 0 48 32">
<path fill="none" stroke="#585858" style="stroke: var(--color1, #585858)" stroke-linejoin="round" stroke-linecap="round" stroke-miterlimit="4" stroke-width="4" d="M30.193 2.667l15.14 13.333M45.333 16l-15.14 13.333M45.333 16h-42.667"></path>
</symbol>
<symbol id="dots" viewBox="0 0 192 32">
<path fill="#ff2e63" style="fill: var(--color1, #ff2e63)" d="M32 16c0 8.837-7.163 16-16 16s-16-7.163-16-16c0-8.837 7.163-16 16-16s16 7.163 16 16z"></path>
<path fill="#ff2e63" style="fill: var(--color1, #ff2e63)" opacity="0.33" d="M112 16c0 8.837-7.163 16-16 16s-16-7.163-16-16c0-8.837 7.163-16 16-16s16 7.163 16 16z"></path>
<path fill="#ff2e63" style="fill: var(--color1, #ff2e63)" opacity="0.33" d="M192 16c0 8.837-7.163 16-16 16s-16-7.163-16-16c0-8.837 7.163-16 16-16s16 7.163 16 16z"></path>
</symbol>
</defs>
</svg>
